<mxfile host="app.diagrams.net" agent="Mozilla/5.0 (X11; Ubuntu; Linux x86_64; rv:135.0) Gecko/20100101 Firefox/135.0" version="26.0.16">
  <diagram name="Page-1" id="FCBglYs9-XKRPHLuc_b3">
    <mxGraphModel dx="794" dy="1153" grid="1" gridSize="10" guides="1" tooltips="1" connect="1" arrows="1" fold="1" page="1" pageScale="1" pageWidth="850" pageHeight="1100" math="0" shadow="0">
      <root>
        <mxCell id="0" />
        <mxCell id="1" parent="0" />
        <mxCell id="pfm0wSainc3oW-1ZV_Hw-3" value="" style="edgeStyle=orthogonalEdgeStyle;rounded=0;orthogonalLoop=1;jettySize=auto;html=1;fontFamily=Helvetica;fontSize=12;fontColor=default;" edge="1" parent="1" source="pfm0wSainc3oW-1ZV_Hw-1" target="pfm0wSainc3oW-1ZV_Hw-2">
          <mxGeometry relative="1" as="geometry" />
        </mxCell>
        <mxCell id="pfm0wSainc3oW-1ZV_Hw-1" value="Given &lt;i&gt;node &lt;/i&gt;to insert and current solution" style="rounded=1;whiteSpace=wrap;html=1;fillColor=none;" vertex="1" parent="1">
          <mxGeometry x="340" y="20" width="240" height="30" as="geometry" />
        </mxCell>
        <mxCell id="pfm0wSainc3oW-1ZV_Hw-5" value="" style="edgeStyle=orthogonalEdgeStyle;rounded=0;orthogonalLoop=1;jettySize=auto;html=1;fontFamily=Helvetica;fontSize=12;fontColor=default;" edge="1" parent="1" source="pfm0wSainc3oW-1ZV_Hw-2" target="pfm0wSainc3oW-1ZV_Hw-4">
          <mxGeometry relative="1" as="geometry" />
        </mxCell>
        <mxCell id="pfm0wSainc3oW-1ZV_Hw-2" value="Loop over routes" style="whiteSpace=wrap;html=1;fillColor=none;rounded=0;" vertex="1" parent="1">
          <mxGeometry x="400" y="80" width="120" height="40" as="geometry" />
        </mxCell>
        <mxCell id="pfm0wSainc3oW-1ZV_Hw-7" value="" style="edgeStyle=orthogonalEdgeStyle;rounded=0;orthogonalLoop=1;jettySize=auto;html=1;fontFamily=Helvetica;fontSize=12;fontColor=default;" edge="1" parent="1" source="pfm0wSainc3oW-1ZV_Hw-4">
          <mxGeometry relative="1" as="geometry">
            <mxPoint x="460" y="220" as="targetPoint" />
          </mxGeometry>
        </mxCell>
        <mxCell id="pfm0wSainc3oW-1ZV_Hw-4" value="&lt;div&gt;Loop over positions&amp;nbsp;&lt;/div&gt;&lt;div&gt;in route&lt;/div&gt;" style="whiteSpace=wrap;html=1;fillColor=none;rounded=0;" vertex="1" parent="1">
          <mxGeometry x="400" y="150" width="120" height="40" as="geometry" />
        </mxCell>
        <mxCell id="pfm0wSainc3oW-1ZV_Hw-10" value="" style="edgeStyle=orthogonalEdgeStyle;rounded=0;orthogonalLoop=1;jettySize=auto;html=1;fontFamily=Helvetica;fontSize=12;fontColor=default;" edge="1" parent="1" source="pfm0wSainc3oW-1ZV_Hw-8" target="pfm0wSainc3oW-1ZV_Hw-9">
          <mxGeometry relative="1" as="geometry" />
        </mxCell>
        <mxCell id="pfm0wSainc3oW-1ZV_Hw-43" style="edgeStyle=orthogonalEdgeStyle;rounded=0;orthogonalLoop=1;jettySize=auto;html=1;exitX=0;exitY=0.5;exitDx=0;exitDy=0;entryX=0;entryY=0.5;entryDx=0;entryDy=0;fontFamily=Helvetica;fontSize=12;fontColor=default;" edge="1" parent="1" source="pfm0wSainc3oW-1ZV_Hw-8" target="pfm0wSainc3oW-1ZV_Hw-24">
          <mxGeometry relative="1" as="geometry">
            <Array as="points">
              <mxPoint x="270" y="280" />
              <mxPoint x="270" y="805" />
            </Array>
          </mxGeometry>
        </mxCell>
        <mxCell id="pfm0wSainc3oW-1ZV_Hw-8" value="&lt;div&gt;Satisfies &lt;br&gt;&lt;/div&gt;&lt;div&gt;vehicle&lt;/div&gt;&lt;div&gt;capacity&lt;/div&gt;&lt;div&gt;constraints?&lt;/div&gt;" style="rhombus;whiteSpace=wrap;html=1;rounded=0;strokeColor=default;align=center;verticalAlign=middle;fontFamily=Helvetica;fontSize=12;fontColor=default;fillColor=none;" vertex="1" parent="1">
          <mxGeometry x="400" y="220" width="120" height="120" as="geometry" />
        </mxCell>
        <mxCell id="pfm0wSainc3oW-1ZV_Hw-14" value="" style="edgeStyle=orthogonalEdgeStyle;rounded=0;orthogonalLoop=1;jettySize=auto;html=1;fontFamily=Helvetica;fontSize=12;fontColor=default;" edge="1" parent="1" source="pfm0wSainc3oW-1ZV_Hw-9" target="pfm0wSainc3oW-1ZV_Hw-13">
          <mxGeometry relative="1" as="geometry" />
        </mxCell>
        <mxCell id="pfm0wSainc3oW-1ZV_Hw-41" style="edgeStyle=orthogonalEdgeStyle;rounded=0;orthogonalLoop=1;jettySize=auto;html=1;exitX=0;exitY=0.5;exitDx=0;exitDy=0;entryX=0;entryY=0.5;entryDx=0;entryDy=0;fontFamily=Helvetica;fontSize=12;fontColor=default;" edge="1" parent="1" source="pfm0wSainc3oW-1ZV_Hw-9" target="pfm0wSainc3oW-1ZV_Hw-24">
          <mxGeometry relative="1" as="geometry">
            <Array as="points">
              <mxPoint x="300" y="430" />
              <mxPoint x="300" y="805" />
            </Array>
          </mxGeometry>
        </mxCell>
        <mxCell id="pfm0wSainc3oW-1ZV_Hw-9" value="&lt;div&gt;Satisfies &lt;br&gt;&lt;/div&gt;&lt;div&gt;time &lt;br&gt;&lt;/div&gt;&lt;div&gt;window&lt;/div&gt;&lt;div&gt;constraints?&lt;/div&gt;" style="rhombus;whiteSpace=wrap;html=1;rounded=0;strokeColor=default;align=center;verticalAlign=middle;fontFamily=Helvetica;fontSize=12;fontColor=default;fillColor=none;" vertex="1" parent="1">
          <mxGeometry x="400" y="370" width="120" height="120" as="geometry" />
        </mxCell>
        <mxCell id="pfm0wSainc3oW-1ZV_Hw-11" value="Yes" style="text;html=1;align=center;verticalAlign=middle;resizable=0;points=[];autosize=1;strokeColor=none;fillColor=none;fontFamily=Helvetica;fontSize=12;fontColor=default;" vertex="1" parent="1">
          <mxGeometry x="460" y="338" width="40" height="30" as="geometry" />
        </mxCell>
        <mxCell id="pfm0wSainc3oW-1ZV_Hw-16" value="" style="edgeStyle=orthogonalEdgeStyle;rounded=0;orthogonalLoop=1;jettySize=auto;html=1;fontFamily=Helvetica;fontSize=12;fontColor=default;" edge="1" parent="1" source="pfm0wSainc3oW-1ZV_Hw-13" target="pfm0wSainc3oW-1ZV_Hw-15">
          <mxGeometry relative="1" as="geometry" />
        </mxCell>
        <mxCell id="pfm0wSainc3oW-1ZV_Hw-13" value="Calculate cost of insertion" style="whiteSpace=wrap;html=1;fillColor=none;rounded=0;" vertex="1" parent="1">
          <mxGeometry x="380" y="520" width="160" height="30" as="geometry" />
        </mxCell>
        <mxCell id="pfm0wSainc3oW-1ZV_Hw-20" value="" style="edgeStyle=orthogonalEdgeStyle;rounded=0;orthogonalLoop=1;jettySize=auto;html=1;fontFamily=Helvetica;fontSize=12;fontColor=default;" edge="1" parent="1" source="pfm0wSainc3oW-1ZV_Hw-15" target="pfm0wSainc3oW-1ZV_Hw-19">
          <mxGeometry relative="1" as="geometry" />
        </mxCell>
        <mxCell id="pfm0wSainc3oW-1ZV_Hw-46" style="edgeStyle=orthogonalEdgeStyle;rounded=0;orthogonalLoop=1;jettySize=auto;html=1;exitX=0;exitY=0.5;exitDx=0;exitDy=0;entryX=0;entryY=0.5;entryDx=0;entryDy=0;fontFamily=Helvetica;fontSize=12;fontColor=default;" edge="1" parent="1" source="pfm0wSainc3oW-1ZV_Hw-15" target="pfm0wSainc3oW-1ZV_Hw-24">
          <mxGeometry relative="1" as="geometry">
            <Array as="points">
              <mxPoint x="330" y="620" />
              <mxPoint x="330" y="805" />
            </Array>
          </mxGeometry>
        </mxCell>
        <mxCell id="pfm0wSainc3oW-1ZV_Hw-15" value="&lt;div&gt;New&lt;/div&gt;&lt;div&gt;best cost?&lt;/div&gt;" style="rhombus;whiteSpace=wrap;html=1;rounded=0;strokeColor=default;align=center;verticalAlign=middle;fontFamily=Helvetica;fontSize=12;fontColor=default;fillColor=none;" vertex="1" parent="1">
          <mxGeometry x="420" y="580" width="80" height="80" as="geometry" />
        </mxCell>
        <mxCell id="pfm0wSainc3oW-1ZV_Hw-18" value="Yes" style="text;html=1;align=center;verticalAlign=middle;resizable=0;points=[];autosize=1;strokeColor=none;fillColor=none;fontFamily=Helvetica;fontSize=12;fontColor=default;" vertex="1" parent="1">
          <mxGeometry x="460" y="480" width="40" height="30" as="geometry" />
        </mxCell>
        <mxCell id="pfm0wSainc3oW-1ZV_Hw-23" style="edgeStyle=orthogonalEdgeStyle;rounded=0;orthogonalLoop=1;jettySize=auto;html=1;fontFamily=Helvetica;fontSize=12;fontColor=default;" edge="1" parent="1" source="pfm0wSainc3oW-1ZV_Hw-19" target="pfm0wSainc3oW-1ZV_Hw-24">
          <mxGeometry relative="1" as="geometry">
            <mxPoint x="460" y="750" as="targetPoint" />
          </mxGeometry>
        </mxCell>
        <mxCell id="pfm0wSainc3oW-1ZV_Hw-19" value="Save best route index, cost and index of insertion" style="whiteSpace=wrap;html=1;fillColor=none;rounded=0;" vertex="1" parent="1">
          <mxGeometry x="360" y="680" width="200" height="40" as="geometry" />
        </mxCell>
        <mxCell id="pfm0wSainc3oW-1ZV_Hw-21" value="Yes" style="text;html=1;align=center;verticalAlign=middle;resizable=0;points=[];autosize=1;strokeColor=none;fillColor=none;fontFamily=Helvetica;fontSize=12;fontColor=default;" vertex="1" parent="1">
          <mxGeometry x="460" y="648" width="40" height="30" as="geometry" />
        </mxCell>
        <mxCell id="pfm0wSainc3oW-1ZV_Hw-22" value="No" style="text;html=1;align=center;verticalAlign=middle;resizable=0;points=[];autosize=1;strokeColor=none;fillColor=none;fontFamily=Helvetica;fontSize=12;fontColor=default;" vertex="1" parent="1">
          <mxGeometry x="384" y="594" width="40" height="30" as="geometry" />
        </mxCell>
        <mxCell id="pfm0wSainc3oW-1ZV_Hw-25" style="edgeStyle=orthogonalEdgeStyle;rounded=0;orthogonalLoop=1;jettySize=auto;html=1;exitX=1;exitY=0.5;exitDx=0;exitDy=0;entryX=1;entryY=0.5;entryDx=0;entryDy=0;fontFamily=Helvetica;fontSize=12;fontColor=default;" edge="1" parent="1" source="pfm0wSainc3oW-1ZV_Hw-24" target="pfm0wSainc3oW-1ZV_Hw-4">
          <mxGeometry relative="1" as="geometry">
            <Array as="points">
              <mxPoint x="630" y="805" />
              <mxPoint x="630" y="170" />
            </Array>
          </mxGeometry>
        </mxCell>
        <mxCell id="pfm0wSainc3oW-1ZV_Hw-32" value="" style="edgeStyle=orthogonalEdgeStyle;rounded=0;orthogonalLoop=1;jettySize=auto;html=1;fontFamily=Helvetica;fontSize=12;fontColor=default;" edge="1" parent="1" source="pfm0wSainc3oW-1ZV_Hw-24" target="pfm0wSainc3oW-1ZV_Hw-31">
          <mxGeometry relative="1" as="geometry" />
        </mxCell>
        <mxCell id="pfm0wSainc3oW-1ZV_Hw-24" value="&lt;div&gt;Finished loop&amp;nbsp;&lt;/div&gt;&lt;div&gt;on nodes?&lt;/div&gt;" style="rhombus;whiteSpace=wrap;html=1;rounded=0;strokeColor=default;align=center;verticalAlign=middle;fontFamily=Helvetica;fontSize=12;fontColor=default;fillColor=none;" vertex="1" parent="1">
          <mxGeometry x="405" y="750" width="110" height="110" as="geometry" />
        </mxCell>
        <mxCell id="pfm0wSainc3oW-1ZV_Hw-26" value="No" style="text;html=1;align=center;verticalAlign=middle;resizable=0;points=[];autosize=1;strokeColor=none;fillColor=none;fontFamily=Helvetica;fontSize=12;fontColor=default;" vertex="1" parent="1">
          <mxGeometry x="510" y="778" width="40" height="30" as="geometry" />
        </mxCell>
        <mxCell id="pfm0wSainc3oW-1ZV_Hw-33" style="edgeStyle=orthogonalEdgeStyle;rounded=0;orthogonalLoop=1;jettySize=auto;html=1;entryX=1;entryY=0.5;entryDx=0;entryDy=0;fontFamily=Helvetica;fontSize=12;fontColor=default;" edge="1" parent="1" source="pfm0wSainc3oW-1ZV_Hw-31" target="pfm0wSainc3oW-1ZV_Hw-2">
          <mxGeometry relative="1" as="geometry">
            <Array as="points">
              <mxPoint x="670" y="935" />
              <mxPoint x="670" y="100" />
            </Array>
          </mxGeometry>
        </mxCell>
        <mxCell id="pfm0wSainc3oW-1ZV_Hw-49" value="" style="edgeStyle=orthogonalEdgeStyle;rounded=0;orthogonalLoop=1;jettySize=auto;html=1;fontFamily=Helvetica;fontSize=12;fontColor=default;" edge="1" parent="1" source="pfm0wSainc3oW-1ZV_Hw-31" target="pfm0wSainc3oW-1ZV_Hw-48">
          <mxGeometry relative="1" as="geometry" />
        </mxCell>
        <mxCell id="pfm0wSainc3oW-1ZV_Hw-31" value="&lt;div&gt;Finished loop&amp;nbsp;&lt;/div&gt;&lt;div&gt;on routes?&lt;/div&gt;" style="rhombus;whiteSpace=wrap;html=1;rounded=0;strokeColor=default;align=center;verticalAlign=middle;fontFamily=Helvetica;fontSize=12;fontColor=default;fillColor=none;" vertex="1" parent="1">
          <mxGeometry x="405" y="880" width="110" height="110" as="geometry" />
        </mxCell>
        <mxCell id="pfm0wSainc3oW-1ZV_Hw-35" value="No" style="text;html=1;align=center;verticalAlign=middle;resizable=0;points=[];autosize=1;strokeColor=none;fillColor=none;fontFamily=Helvetica;fontSize=12;fontColor=default;" vertex="1" parent="1">
          <mxGeometry x="510" y="910" width="40" height="30" as="geometry" />
        </mxCell>
        <mxCell id="pfm0wSainc3oW-1ZV_Hw-44" value="No" style="text;html=1;align=center;verticalAlign=middle;resizable=0;points=[];autosize=1;strokeColor=none;fillColor=none;fontFamily=Helvetica;fontSize=12;fontColor=default;" vertex="1" parent="1">
          <mxGeometry x="365" y="253" width="40" height="30" as="geometry" />
        </mxCell>
        <mxCell id="pfm0wSainc3oW-1ZV_Hw-45" value="No" style="text;html=1;align=center;verticalAlign=middle;resizable=0;points=[];autosize=1;strokeColor=none;fillColor=none;fontFamily=Helvetica;fontSize=12;fontColor=default;" vertex="1" parent="1">
          <mxGeometry x="365" y="403" width="40" height="30" as="geometry" />
        </mxCell>
        <mxCell id="pfm0wSainc3oW-1ZV_Hw-47" value="Yes" style="text;html=1;align=center;verticalAlign=middle;resizable=0;points=[];autosize=1;strokeColor=none;fillColor=none;fontFamily=Helvetica;fontSize=12;fontColor=default;" vertex="1" parent="1">
          <mxGeometry x="460" y="850" width="40" height="30" as="geometry" />
        </mxCell>
        <mxCell id="pfm0wSainc3oW-1ZV_Hw-48" value="Return best results" style="rounded=1;whiteSpace=wrap;html=1;strokeColor=default;align=center;verticalAlign=middle;fontFamily=Helvetica;fontSize=12;fontColor=default;fillColor=none;" vertex="1" parent="1">
          <mxGeometry x="400" y="1020" width="120" height="40" as="geometry" />
        </mxCell>
        <mxCell id="pfm0wSainc3oW-1ZV_Hw-51" value="Yes" style="text;html=1;align=center;verticalAlign=middle;resizable=0;points=[];autosize=1;strokeColor=none;fillColor=none;fontFamily=Helvetica;fontSize=12;fontColor=default;" vertex="1" parent="1">
          <mxGeometry x="460" y="980" width="40" height="30" as="geometry" />
        </mxCell>
      </root>
    </mxGraphModel>
  </diagram>
</mxfile>
